<svg width="1000" height="1000" viewBox="0 0 1000 1000" fill="none" xmlns="http://www.w3.org/2000/svg">
<path d="M853.553 146.447C947.322 240.215 1000 367.392 1000 500C1000 632.608 947.322 759.785 853.553 853.553C759.785 947.322 632.608 1000 500 1000C367.392 1000 240.215 947.322 146.447 853.553L500 500L853.553 146.447Z" fill="#FF8A00"/>
<path d="M146.447 853.553C52.6784 759.785 4.21515e-06 632.608 0 500C-4.21515e-06 367.392 52.6784 240.215 146.447 146.447C240.215 52.6784 367.392 1.42268e-05 500 0C632.608 -1.42268e-05 759.785 52.6784 853.553 146.447L500 500L146.447 853.553Z" fill="#FFB966"/>
</svg>
